<svg height="25" width="25" xmlns="http://www.w3.org/2000/svg" viewBox="0 0 490.655 490.655" xml:space="preserve"><path d="M490.102 188.328c-1.323-3.84-4.693-6.613-8.704-7.147l-154.496-20.48L254.88 16.317c-3.584-7.232-15.509-7.232-19.093 0l-72.021 144.384L9.27 181.181a10.69 10.69 0 0 0-8.704 7.147 10.66 10.66 0 0 0 2.56 10.965l113.301 113.301-30.869 154.39a10.7 10.7 0 0 0 3.989 10.581c3.243 2.475 7.637 2.88 11.243 1.067l144.555-72.277L389.9 478.632a10.8 10.8 0 0 0 4.779 1.131 10.72 10.72 0 0 0 6.485-2.197 10.73 10.73 0 0 0 3.989-10.581l-30.869-154.389 113.301-113.301c2.815-2.861 3.797-7.106 2.517-10.967"/></svg>
